<mxfile host="app.diagrams.net" agent="Mozilla/5.0 (Macintosh; Intel Mac OS X 10_15_7) AppleWebKit/605.1.15 (KHTML, like Gecko) Version/18.0.1 Safari/605.1.15" version="24.8.4">
  <diagram name="Page-1" id="RpHs7PLilBtEIWHlMbL4">
    <mxGraphModel dx="1908" dy="1294" grid="1" gridSize="10" guides="1" tooltips="1" connect="1" arrows="1" fold="1" page="1" pageScale="1" pageWidth="827" pageHeight="1169" math="0" shadow="0">
      <root>
        <mxCell id="0" />
        <mxCell id="1" parent="0" />
        <mxCell id="3mZjC6TeXiICDlZPDG1V-1" value="&lt;font style=&quot;font-size: 49px;&quot; face=&quot;Times New Roman&quot;&gt;祖德流芳&lt;/font&gt;" style="text;strokeColor=none;align=center;fillColor=none;html=1;verticalAlign=middle;whiteSpace=wrap;rounded=0;strokeWidth=1;" vertex="1" parent="1">
          <mxGeometry x="295.75" y="50" width="254.5" height="30" as="geometry" />
        </mxCell>
        <mxCell id="3mZjC6TeXiICDlZPDG1V-12" value="&lt;b style=&quot;font-size: 18px;&quot;&gt;&lt;span style=&quot;white-space: nowrap;&quot;&gt;邢谷冀&lt;/span&gt;&lt;span style=&quot;text-align: start; white-space: pre-wrap; font-family: &amp;quot;Helvetica Neue&amp;quot;, Helvetica, &amp;quot;PingFang SC&amp;quot;, Tahoma, Arial, sans-serif; background-color: rgb(255, 255, 255);&quot;&gt;陳&lt;/span&gt;&lt;span style=&quot;white-space: nowrap;&quot;&gt;氏&lt;/span&gt;&lt;/b&gt;" style="text;strokeColor=none;align=center;fillColor=none;html=1;verticalAlign=middle;whiteSpace=wrap;rounded=0;strokeWidth=1;" vertex="1" parent="1">
          <mxGeometry x="363.75" y="150" width="103.5" height="30" as="geometry" />
        </mxCell>
        <mxCell id="3mZjC6TeXiICDlZPDG1V-23" value="&lt;span style=&quot;white-space: nowrap;&quot;&gt;&lt;b&gt;&lt;font style=&quot;font-size: 18px;&quot;&gt;邢&lt;/font&gt;&lt;/b&gt;&lt;/span&gt;&lt;div style=&quot;font-size: 18px;&quot;&gt;&lt;span style=&quot;white-space: nowrap;&quot;&gt;&lt;b&gt;&lt;font style=&quot;font-size: 18px;&quot;&gt;诒&lt;/font&gt;&lt;/b&gt;&lt;/span&gt;&lt;/div&gt;&lt;div style=&quot;font-size: 18px;&quot;&gt;&lt;span style=&quot;white-space: nowrap;&quot;&gt;&lt;b&gt;安&lt;/b&gt;&lt;/span&gt;&lt;/div&gt;&lt;div style=&quot;font-size: 18px;&quot;&gt;&lt;span style=&quot;text-align: start; white-space: pre-wrap; font-family: &amp;quot;Helvetica Neue&amp;quot;, Helvetica, &amp;quot;PingFang SC&amp;quot;, Tahoma, Arial, sans-serif; background-color: rgb(255, 255, 255);&quot;&gt;&lt;b&gt;&lt;font style=&quot;font-size: 18px;&quot;&gt;陳&lt;/font&gt;&lt;/b&gt;&lt;/span&gt;&lt;/div&gt;&lt;div style=&quot;font-size: 18px;&quot;&gt;&lt;span style=&quot;white-space: nowrap;&quot;&gt;&lt;b&gt;&lt;font style=&quot;font-size: 18px;&quot;&gt;氏&lt;/font&gt;&lt;/b&gt;&lt;/span&gt;&lt;/div&gt;" style="text;strokeColor=none;align=center;fillColor=none;html=1;verticalAlign=middle;whiteSpace=wrap;rounded=0;strokeWidth=1;" vertex="1" parent="1">
          <mxGeometry x="252" y="290" width="26" height="80" as="geometry" />
        </mxCell>
        <mxCell id="3mZjC6TeXiICDlZPDG1V-25" value="&lt;span style=&quot;white-space: nowrap; font-size: 18px;&quot;&gt;&lt;b&gt;&lt;font style=&quot;font-size: 18px;&quot;&gt;邢&lt;/font&gt;&lt;/b&gt;&lt;/span&gt;&lt;div style=&quot;font-size: 18px;&quot;&gt;&lt;b&gt;&lt;font style=&quot;font-size: 18px;&quot;&gt;&lt;span style=&quot;white-space: nowrap;&quot;&gt;诒&lt;/span&gt;&lt;br&gt;&lt;/font&gt;&lt;/b&gt;&lt;/div&gt;&lt;div style=&quot;font-size: 18px;&quot;&gt;&lt;span style=&quot;text-align: start; white-space: pre-wrap; font-family: &amp;quot;Helvetica Neue&amp;quot;, Helvetica, &amp;quot;PingFang SC&amp;quot;, Tahoma, Arial, sans-serif; background-color: rgb(255, 255, 255);&quot;&gt;&lt;b&gt;&lt;font style=&quot;font-size: 18px;&quot;&gt;動&lt;/font&gt;&lt;/b&gt;&lt;/span&gt;&lt;/div&gt;&lt;div style=&quot;font-size: 18px;&quot;&gt;&lt;span style=&quot;text-align: start; white-space: pre-wrap; font-family: &amp;quot;Helvetica Neue&amp;quot;, Helvetica, &amp;quot;PingFang SC&amp;quot;, Tahoma, Arial, sans-serif; background-color: rgb(255, 255, 255);&quot;&gt;&lt;b&gt;&lt;font style=&quot;font-size: 18px;&quot;&gt;陳&lt;/font&gt;&lt;/b&gt;&lt;/span&gt;&lt;/div&gt;&lt;div style=&quot;font-size: 18px;&quot;&gt;&lt;span style=&quot;white-space: nowrap;&quot;&gt;&lt;b&gt;&lt;font style=&quot;font-size: 18px;&quot;&gt;氏&lt;/font&gt;&lt;/b&gt;&lt;/span&gt;&lt;/div&gt;" style="text;strokeColor=none;align=center;fillColor=none;html=1;verticalAlign=middle;whiteSpace=wrap;rounded=0;strokeWidth=1;" vertex="1" parent="1">
          <mxGeometry x="535" y="290" width="30" height="80" as="geometry" />
        </mxCell>
        <mxCell id="3mZjC6TeXiICDlZPDG1V-91" style="edgeStyle=orthogonalEdgeStyle;rounded=0;orthogonalLoop=1;jettySize=auto;html=1;entryX=0.5;entryY=0;entryDx=0;entryDy=0;" edge="1" parent="1" source="3mZjC6TeXiICDlZPDG1V-26" target="3mZjC6TeXiICDlZPDG1V-32">
          <mxGeometry relative="1" as="geometry" />
        </mxCell>
        <mxCell id="3mZjC6TeXiICDlZPDG1V-115" style="edgeStyle=orthogonalEdgeStyle;rounded=0;orthogonalLoop=1;jettySize=auto;html=1;exitX=0.5;exitY=1;exitDx=0;exitDy=0;" edge="1" parent="1" source="3mZjC6TeXiICDlZPDG1V-26">
          <mxGeometry relative="1" as="geometry">
            <mxPoint x="688.2068965517242" y="560.2068965517242" as="targetPoint" />
          </mxGeometry>
        </mxCell>
        <mxCell id="3mZjC6TeXiICDlZPDG1V-116" style="edgeStyle=orthogonalEdgeStyle;rounded=0;orthogonalLoop=1;jettySize=auto;html=1;exitX=0.5;exitY=1;exitDx=0;exitDy=0;entryX=0.5;entryY=0;entryDx=0;entryDy=0;" edge="1" parent="1" source="3mZjC6TeXiICDlZPDG1V-26" target="3mZjC6TeXiICDlZPDG1V-31">
          <mxGeometry relative="1" as="geometry">
            <Array as="points">
              <mxPoint x="688" y="580" />
              <mxPoint x="713" y="580" />
            </Array>
          </mxGeometry>
        </mxCell>
        <mxCell id="3mZjC6TeXiICDlZPDG1V-26" value="&lt;font style=&quot;font-size: 18px;&quot;&gt;&lt;span style=&quot;white-space: nowrap;&quot;&gt;&lt;b&gt;邢&lt;/b&gt;&lt;/span&gt;&lt;/font&gt;&lt;div style=&quot;font-size: 18px;&quot;&gt;&lt;b&gt;&lt;font style=&quot;font-size: 18px;&quot;&gt;&lt;span style=&quot;white-space: nowrap;&quot;&gt;华&lt;/span&gt;&lt;br&gt;&lt;/font&gt;&lt;/b&gt;&lt;/div&gt;&lt;div style=&quot;font-size: 18px;&quot;&gt;&lt;font style=&quot;font-size: 18px;&quot;&gt;&lt;span style=&quot;white-space: nowrap;&quot;&gt;&lt;b&gt;琼&lt;/b&gt;&lt;/span&gt;&lt;/font&gt;&lt;/div&gt;&lt;div style=&quot;font-size: 18px;&quot;&gt;&lt;font style=&quot;font-size: 18px;&quot;&gt;&lt;span style=&quot;text-align: start; white-space: pre-wrap; font-family: &amp;quot;Helvetica Neue&amp;quot;, Helvetica, &amp;quot;PingFang SC&amp;quot;, Tahoma, Arial, sans-serif; background-color: rgb(255, 255, 255);&quot;&gt;&lt;b&gt;陳&lt;/b&gt;&lt;/span&gt;&lt;/font&gt;&lt;/div&gt;&lt;div style=&quot;font-size: 18px;&quot;&gt;&lt;font style=&quot;font-size: 18px;&quot;&gt;&lt;span style=&quot;white-space: nowrap;&quot;&gt;&lt;b&gt;氏&lt;/b&gt;&lt;/span&gt;&lt;/font&gt;&lt;/div&gt;" style="text;strokeColor=none;align=center;fillColor=none;html=1;verticalAlign=middle;whiteSpace=wrap;rounded=0;strokeWidth=1;" vertex="1" parent="1">
          <mxGeometry x="675.5" y="450" width="25" height="110" as="geometry" />
        </mxCell>
        <mxCell id="3mZjC6TeXiICDlZPDG1V-112" style="edgeStyle=orthogonalEdgeStyle;rounded=0;orthogonalLoop=1;jettySize=auto;html=1;exitX=0.5;exitY=1;exitDx=0;exitDy=0;entryX=0.5;entryY=0;entryDx=0;entryDy=0;" edge="1" parent="1" source="3mZjC6TeXiICDlZPDG1V-27" target="3mZjC6TeXiICDlZPDG1V-30">
          <mxGeometry relative="1" as="geometry" />
        </mxCell>
        <mxCell id="3mZjC6TeXiICDlZPDG1V-113" style="edgeStyle=orthogonalEdgeStyle;rounded=0;orthogonalLoop=1;jettySize=auto;html=1;exitX=0.5;exitY=1;exitDx=0;exitDy=0;" edge="1" parent="1" source="3mZjC6TeXiICDlZPDG1V-27">
          <mxGeometry relative="1" as="geometry">
            <mxPoint x="570" y="600" as="targetPoint" />
            <Array as="points">
              <mxPoint x="540" y="580" />
              <mxPoint x="570" y="580" />
            </Array>
          </mxGeometry>
        </mxCell>
        <mxCell id="3mZjC6TeXiICDlZPDG1V-27" value="&lt;span style=&quot;white-space: nowrap; font-size: 18px;&quot;&gt;&lt;b&gt;&lt;font style=&quot;font-size: 18px;&quot;&gt;邢&lt;/font&gt;&lt;/b&gt;&lt;/span&gt;&lt;div style=&quot;font-size: 18px;&quot;&gt;&lt;span style=&quot;white-space: nowrap;&quot;&gt;&lt;b&gt;&lt;font style=&quot;font-size: 18px;&quot;&gt;华&lt;/font&gt;&lt;/b&gt;&lt;/span&gt;&lt;/div&gt;&lt;div style=&quot;font-size: 18px;&quot;&gt;&lt;span style=&quot;white-space: nowrap;&quot;&gt;&lt;b&gt;&lt;font style=&quot;font-size: 18px;&quot;&gt;省&lt;/font&gt;&lt;/b&gt;&lt;/span&gt;&lt;/div&gt;&lt;div style=&quot;font-size: 18px;&quot;&gt;&lt;span style=&quot;white-space: pre-wrap; text-align: start; font-family: &amp;quot;Helvetica Neue&amp;quot;, Helvetica, &amp;quot;PingFang SC&amp;quot;, Tahoma, Arial, sans-serif; background-color: rgb(255, 255, 255);&quot;&gt;&lt;b&gt;&lt;font style=&quot;font-size: 18px;&quot;&gt;陳&lt;/font&gt;&lt;/b&gt;&lt;/span&gt;&lt;/div&gt;&lt;div style=&quot;font-size: 18px;&quot;&gt;&lt;span style=&quot;white-space: nowrap;&quot;&gt;&lt;b&gt;&lt;font style=&quot;font-size: 18px;&quot;&gt;氏&lt;/font&gt;&lt;/b&gt;&lt;/span&gt;&lt;/div&gt;" style="text;strokeColor=none;align=center;fillColor=none;html=1;verticalAlign=middle;whiteSpace=wrap;rounded=0;strokeWidth=1;" vertex="1" parent="1">
          <mxGeometry x="535" y="434.93" width="20" height="110.07" as="geometry" />
        </mxCell>
        <mxCell id="3mZjC6TeXiICDlZPDG1V-29" value="&lt;span style=&quot;white-space: nowrap;&quot;&gt;邢&lt;/span&gt;&lt;div&gt;&lt;span style=&quot;white-space: nowrap;&quot;&gt;孔&lt;/span&gt;&lt;/div&gt;&lt;div&gt;&lt;span style=&quot;white-space: nowrap;&quot;&gt;承&lt;/span&gt;&lt;/div&gt;" style="text;strokeColor=none;align=center;fillColor=none;html=1;verticalAlign=middle;whiteSpace=wrap;rounded=0;strokeWidth=1;" vertex="1" parent="1">
          <mxGeometry x="558" y="600.07" width="21" height="50" as="geometry" />
        </mxCell>
        <mxCell id="3mZjC6TeXiICDlZPDG1V-30" value="&lt;span style=&quot;white-space: nowrap;&quot;&gt;邢&lt;/span&gt;&lt;div&gt;&lt;span style=&quot;white-space: nowrap;&quot;&gt;孔&lt;/span&gt;&lt;/div&gt;&lt;div&gt;&lt;span style=&quot;white-space: nowrap;&quot;&gt;彭&lt;/span&gt;&lt;/div&gt;" style="text;strokeColor=none;align=center;fillColor=none;html=1;verticalAlign=middle;whiteSpace=wrap;rounded=0;strokeWidth=1;" vertex="1" parent="1">
          <mxGeometry x="500.5" y="600.07" width="25" height="50" as="geometry" />
        </mxCell>
        <mxCell id="3mZjC6TeXiICDlZPDG1V-31" value="&lt;span style=&quot;white-space: nowrap;&quot;&gt;邢&lt;/span&gt;&lt;div&gt;&lt;span style=&quot;white-space: nowrap;&quot;&gt;益&lt;/span&gt;&lt;/div&gt;&lt;div&gt;&lt;span style=&quot;white-space: nowrap;&quot;&gt;文&lt;/span&gt;&lt;/div&gt;&lt;div&gt;&lt;span style=&quot;white-space: pre-wrap; text-align: start; font-family: &amp;quot;Helvetica Neue&amp;quot;, Helvetica, &amp;quot;PingFang SC&amp;quot;, Tahoma, Arial, sans-serif; background-color: rgb(255, 255, 255);&quot;&gt;陳&lt;/span&gt;&lt;/div&gt;&lt;div&gt;&lt;span style=&quot;white-space: nowrap;&quot;&gt;氏&lt;/span&gt;&lt;/div&gt;" style="text;strokeColor=none;align=center;fillColor=none;html=1;verticalAlign=middle;whiteSpace=wrap;rounded=0;strokeWidth=1;" vertex="1" parent="1">
          <mxGeometry x="700.5" y="590" width="25" height="80" as="geometry" />
        </mxCell>
        <mxCell id="3mZjC6TeXiICDlZPDG1V-32" value="&lt;span style=&quot;white-space: nowrap;&quot;&gt;邢&lt;/span&gt;&lt;div&gt;&lt;span style=&quot;white-space: nowrap;&quot;&gt;益&lt;/span&gt;&lt;/div&gt;&lt;div&gt;&lt;span style=&quot;white-space: nowrap;&quot;&gt;东&lt;/span&gt;&lt;/div&gt;" style="text;strokeColor=none;align=center;fillColor=none;html=1;verticalAlign=middle;whiteSpace=wrap;rounded=0;strokeWidth=1;" vertex="1" parent="1">
          <mxGeometry x="650.5" y="605" width="25" height="50" as="geometry" />
        </mxCell>
        <mxCell id="3mZjC6TeXiICDlZPDG1V-95" style="edgeStyle=orthogonalEdgeStyle;rounded=0;orthogonalLoop=1;jettySize=auto;html=1;exitX=0.5;exitY=1;exitDx=0;exitDy=0;entryX=0.5;entryY=0;entryDx=0;entryDy=0;" edge="1" parent="1" source="3mZjC6TeXiICDlZPDG1V-33" target="3mZjC6TeXiICDlZPDG1V-39">
          <mxGeometry relative="1" as="geometry" />
        </mxCell>
        <mxCell id="3mZjC6TeXiICDlZPDG1V-96" style="edgeStyle=orthogonalEdgeStyle;rounded=0;orthogonalLoop=1;jettySize=auto;html=1;exitX=0.5;exitY=1;exitDx=0;exitDy=0;entryX=0.5;entryY=0;entryDx=0;entryDy=0;" edge="1" parent="1" source="3mZjC6TeXiICDlZPDG1V-33" target="3mZjC6TeXiICDlZPDG1V-38">
          <mxGeometry relative="1" as="geometry" />
        </mxCell>
        <mxCell id="3mZjC6TeXiICDlZPDG1V-33" value="&lt;span style=&quot;white-space: nowrap; font-size: 18px;&quot;&gt;&lt;font style=&quot;font-size: 18px;&quot;&gt;&lt;b&gt;邢&lt;/b&gt;&lt;/font&gt;&lt;/span&gt;&lt;div style=&quot;font-size: 18px;&quot;&gt;&lt;span style=&quot;white-space: nowrap;&quot;&gt;&lt;font style=&quot;font-size: 18px;&quot;&gt;&lt;b&gt;海&lt;/b&gt;&lt;/font&gt;&lt;/span&gt;&lt;/div&gt;&lt;div style=&quot;font-size: 18px;&quot;&gt;&lt;span style=&quot;white-space: nowrap;&quot;&gt;&lt;font style=&quot;font-size: 18px;&quot;&gt;&lt;b&gt;滨&lt;/b&gt;&lt;/font&gt;&lt;/span&gt;&lt;/div&gt;&lt;div style=&quot;font-size: 18px;&quot;&gt;&lt;span style=&quot;white-space: pre-wrap; text-align: start; font-family: &amp;quot;Helvetica Neue&amp;quot;, Helvetica, &amp;quot;PingFang SC&amp;quot;, Tahoma, Arial, sans-serif; background-color: rgb(255, 255, 255);&quot;&gt;&lt;font style=&quot;font-size: 18px;&quot;&gt;&lt;b&gt;陳&lt;/b&gt;&lt;/font&gt;&lt;/span&gt;&lt;/div&gt;&lt;div style=&quot;font-size: 18px;&quot;&gt;&lt;span style=&quot;white-space: nowrap;&quot;&gt;&lt;font style=&quot;font-size: 18px;&quot;&gt;&lt;b&gt;氏&lt;/b&gt;&lt;/font&gt;&lt;/span&gt;&lt;/div&gt;" style="text;strokeColor=none;align=center;fillColor=none;html=1;verticalAlign=middle;whiteSpace=wrap;rounded=0;strokeWidth=1;" vertex="1" parent="1">
          <mxGeometry x="222" y="440" width="30" height="105" as="geometry" />
        </mxCell>
        <mxCell id="3mZjC6TeXiICDlZPDG1V-82" style="edgeStyle=orthogonalEdgeStyle;rounded=0;orthogonalLoop=1;jettySize=auto;html=1;exitX=0.5;exitY=1;exitDx=0;exitDy=0;entryX=0.5;entryY=0;entryDx=0;entryDy=0;" edge="1" parent="1" source="3mZjC6TeXiICDlZPDG1V-35" target="3mZjC6TeXiICDlZPDG1V-37">
          <mxGeometry relative="1" as="geometry" />
        </mxCell>
        <mxCell id="3mZjC6TeXiICDlZPDG1V-35" value="&lt;span style=&quot;white-space: nowrap; font-size: 18px;&quot;&gt;&lt;font style=&quot;font-size: 18px;&quot;&gt;&lt;b&gt;邢&lt;/b&gt;&lt;/font&gt;&lt;/span&gt;&lt;div style=&quot;font-size: 18px;&quot;&gt;&lt;span style=&quot;white-space: nowrap;&quot;&gt;&lt;font style=&quot;font-size: 18px;&quot;&gt;&lt;b&gt;海&lt;/b&gt;&lt;/font&gt;&lt;/span&gt;&lt;/div&gt;&lt;div style=&quot;font-size: 18px;&quot;&gt;&lt;span style=&quot;white-space: nowrap;&quot;&gt;&lt;font style=&quot;font-size: 18px;&quot;&gt;&lt;b&gt;丰&lt;/b&gt;&lt;/font&gt;&lt;/span&gt;&lt;/div&gt;&lt;div style=&quot;font-size: 18px;&quot;&gt;&lt;span style=&quot;white-space: pre-wrap; text-align: start; font-family: &amp;quot;Helvetica Neue&amp;quot;, Helvetica, &amp;quot;PingFang SC&amp;quot;, Tahoma, Arial, sans-serif; background-color: rgb(255, 255, 255);&quot;&gt;&lt;font style=&quot;font-size: 18px;&quot;&gt;&lt;b&gt;陳&lt;/b&gt;&lt;/font&gt;&lt;/span&gt;&lt;/div&gt;&lt;div style=&quot;font-size: 18px;&quot;&gt;&lt;span style=&quot;white-space: nowrap;&quot;&gt;&lt;font style=&quot;font-size: 18px;&quot;&gt;&lt;b&gt;氏&lt;/b&gt;&lt;/font&gt;&lt;/span&gt;&lt;/div&gt;" style="text;strokeColor=none;align=center;fillColor=none;html=1;verticalAlign=middle;whiteSpace=wrap;rounded=0;strokeWidth=1;" vertex="1" parent="1">
          <mxGeometry x="120.5" y="430" width="21" height="110" as="geometry" />
        </mxCell>
        <mxCell id="3mZjC6TeXiICDlZPDG1V-86" style="edgeStyle=orthogonalEdgeStyle;rounded=0;orthogonalLoop=1;jettySize=auto;html=1;entryX=0.5;entryY=0;entryDx=0;entryDy=0;" edge="1" parent="1" source="3mZjC6TeXiICDlZPDG1V-36" target="3mZjC6TeXiICDlZPDG1V-41">
          <mxGeometry relative="1" as="geometry" />
        </mxCell>
        <mxCell id="3mZjC6TeXiICDlZPDG1V-105" style="edgeStyle=orthogonalEdgeStyle;rounded=0;orthogonalLoop=1;jettySize=auto;html=1;exitX=0.5;exitY=1;exitDx=0;exitDy=0;entryX=0.5;entryY=0;entryDx=0;entryDy=0;" edge="1" parent="1" source="3mZjC6TeXiICDlZPDG1V-36" target="3mZjC6TeXiICDlZPDG1V-42">
          <mxGeometry relative="1" as="geometry">
            <Array as="points">
              <mxPoint x="400.5" y="560" />
              <mxPoint x="343.5" y="560" />
            </Array>
          </mxGeometry>
        </mxCell>
        <mxCell id="3mZjC6TeXiICDlZPDG1V-106" style="edgeStyle=orthogonalEdgeStyle;rounded=0;orthogonalLoop=1;jettySize=auto;html=1;exitX=0.5;exitY=1;exitDx=0;exitDy=0;entryX=0.5;entryY=0;entryDx=0;entryDy=0;" edge="1" parent="1" source="3mZjC6TeXiICDlZPDG1V-36" target="3mZjC6TeXiICDlZPDG1V-40">
          <mxGeometry relative="1" as="geometry">
            <Array as="points">
              <mxPoint x="400.5" y="560" />
              <mxPoint x="453.5" y="560" />
            </Array>
          </mxGeometry>
        </mxCell>
        <mxCell id="3mZjC6TeXiICDlZPDG1V-36" value="&lt;span style=&quot;white-space: nowrap; font-size: 18px;&quot;&gt;&lt;font style=&quot;font-size: 18px;&quot;&gt;&lt;b&gt;邢&lt;/b&gt;&lt;/font&gt;&lt;/span&gt;&lt;div style=&quot;font-size: 18px;&quot;&gt;&lt;span style=&quot;white-space: nowrap;&quot;&gt;&lt;font style=&quot;font-size: 18px;&quot;&gt;&lt;b&gt;星&lt;/b&gt;&lt;/font&gt;&lt;/span&gt;&lt;/div&gt;&lt;div style=&quot;font-size: 18px;&quot;&gt;&lt;span style=&quot;white-space: nowrap;&quot;&gt;&lt;font style=&quot;font-size: 18px;&quot;&gt;&lt;b&gt;火&lt;/b&gt;&lt;/font&gt;&lt;/span&gt;&lt;/div&gt;&lt;div style=&quot;font-size: 18px;&quot;&gt;&lt;span style=&quot;white-space: pre-wrap; text-align: start; font-family: &amp;quot;Helvetica Neue&amp;quot;, Helvetica, &amp;quot;PingFang SC&amp;quot;, Tahoma, Arial, sans-serif; background-color: rgb(255, 255, 255);&quot;&gt;&lt;font style=&quot;font-size: 18px;&quot;&gt;&lt;b&gt;陳&lt;/b&gt;&lt;/font&gt;&lt;/span&gt;&lt;/div&gt;&lt;div style=&quot;font-size: 18px;&quot;&gt;&lt;span style=&quot;white-space: nowrap;&quot;&gt;&lt;font style=&quot;font-size: 18px;&quot;&gt;&lt;b&gt;氏&lt;/b&gt;&lt;/font&gt;&lt;/span&gt;&lt;/div&gt;" style="text;strokeColor=none;align=center;fillColor=none;html=1;verticalAlign=middle;whiteSpace=wrap;rounded=0;strokeWidth=1;" vertex="1" parent="1">
          <mxGeometry x="387" y="430" width="26" height="110" as="geometry" />
        </mxCell>
        <mxCell id="3mZjC6TeXiICDlZPDG1V-37" value="&lt;span style=&quot;white-space: nowrap;&quot;&gt;邢&lt;/span&gt;&lt;div&gt;&lt;span style=&quot;white-space: nowrap;&quot;&gt;桔&lt;/span&gt;&lt;/div&gt;" style="text;strokeColor=none;align=center;fillColor=none;html=1;verticalAlign=middle;whiteSpace=wrap;rounded=0;strokeWidth=1;" vertex="1" parent="1">
          <mxGeometry x="120.5" y="590" width="21" height="30" as="geometry" />
        </mxCell>
        <mxCell id="3mZjC6TeXiICDlZPDG1V-38" value="&lt;span style=&quot;white-space: nowrap;&quot;&gt;邢&lt;/span&gt;&lt;div&gt;&lt;span style=&quot;white-space: nowrap;&quot;&gt;善&lt;/span&gt;&lt;/div&gt;&lt;div&gt;&lt;span style=&quot;white-space: nowrap;&quot;&gt;堂&lt;/span&gt;&lt;/div&gt;" style="text;strokeColor=none;align=center;fillColor=none;html=1;verticalAlign=middle;whiteSpace=wrap;rounded=0;strokeWidth=1;" vertex="1" parent="1">
          <mxGeometry x="263" y="590" width="30" height="50" as="geometry" />
        </mxCell>
        <mxCell id="3mZjC6TeXiICDlZPDG1V-94" style="edgeStyle=orthogonalEdgeStyle;rounded=0;orthogonalLoop=1;jettySize=auto;html=1;" edge="1" parent="1" source="3mZjC6TeXiICDlZPDG1V-39">
          <mxGeometry relative="1" as="geometry">
            <mxPoint x="203" y="710" as="targetPoint" />
          </mxGeometry>
        </mxCell>
        <mxCell id="3mZjC6TeXiICDlZPDG1V-39" value="&lt;span style=&quot;white-space: nowrap;&quot;&gt;邢&lt;/span&gt;&lt;div&gt;&lt;span style=&quot;white-space: nowrap;&quot;&gt;善&lt;/span&gt;&lt;/div&gt;&lt;div&gt;&lt;span style=&quot;white-space: nowrap;&quot;&gt;皇&lt;/span&gt;&lt;/div&gt;&lt;div&gt;&lt;span style=&quot;white-space: nowrap;&quot;&gt;郑&lt;/span&gt;&lt;/div&gt;&lt;div&gt;&lt;span style=&quot;white-space: nowrap;&quot;&gt;氏&lt;/span&gt;&lt;/div&gt;" style="text;strokeColor=none;align=center;fillColor=none;html=1;verticalAlign=middle;whiteSpace=wrap;rounded=0;strokeWidth=1;" vertex="1" parent="1">
          <mxGeometry x="193" y="590" width="20" height="80" as="geometry" />
        </mxCell>
        <mxCell id="3mZjC6TeXiICDlZPDG1V-40" value="&lt;span style=&quot;white-space: nowrap;&quot;&gt;邢&lt;/span&gt;&lt;div&gt;&lt;span style=&quot;white-space: nowrap;&quot;&gt;关&lt;/span&gt;&lt;/div&gt;&lt;div&gt;&lt;span style=&quot;white-space: nowrap;&quot;&gt;寿&lt;/span&gt;&lt;/div&gt;" style="text;strokeColor=none;align=center;fillColor=none;html=1;verticalAlign=middle;whiteSpace=wrap;rounded=0;strokeWidth=1;" vertex="1" parent="1">
          <mxGeometry x="441" y="590" width="25" height="50" as="geometry" />
        </mxCell>
        <mxCell id="3mZjC6TeXiICDlZPDG1V-41" value="&lt;span style=&quot;white-space: nowrap;&quot;&gt;邢&lt;/span&gt;&lt;div&gt;&lt;span style=&quot;white-space: nowrap;&quot;&gt;胜&lt;/span&gt;&lt;/div&gt;&lt;div&gt;&lt;span style=&quot;white-space: nowrap;&quot;&gt;敏&lt;/span&gt;&lt;/div&gt;" style="text;strokeColor=none;align=center;fillColor=none;html=1;verticalAlign=middle;whiteSpace=wrap;rounded=0;strokeWidth=1;" vertex="1" parent="1">
          <mxGeometry x="386" y="590" width="27" height="50" as="geometry" />
        </mxCell>
        <mxCell id="3mZjC6TeXiICDlZPDG1V-42" value="&lt;span style=&quot;white-space: nowrap;&quot;&gt;邢&lt;/span&gt;&lt;div&gt;&lt;span style=&quot;white-space: nowrap;&quot;&gt;能&lt;/span&gt;&lt;/div&gt;&lt;div&gt;&lt;span style=&quot;white-space: nowrap;&quot;&gt;能&lt;/span&gt;&lt;/div&gt;" style="text;strokeColor=none;align=center;fillColor=none;html=1;verticalAlign=middle;whiteSpace=wrap;rounded=0;strokeWidth=1;" vertex="1" parent="1">
          <mxGeometry x="333" y="590" width="20" height="50" as="geometry" />
        </mxCell>
        <mxCell id="3mZjC6TeXiICDlZPDG1V-58" value="&lt;span style=&quot;white-space: nowrap;&quot;&gt;邢孔承&lt;/span&gt;" style="text;strokeColor=none;align=center;fillColor=none;html=1;verticalAlign=middle;whiteSpace=wrap;rounded=0;" vertex="1" parent="1">
          <mxGeometry x="579" y="810" width="80" height="30" as="geometry" />
        </mxCell>
        <mxCell id="3mZjC6TeXiICDlZPDG1V-59" value="&lt;span style=&quot;white-space: nowrap;&quot;&gt;邢孔彭&lt;/span&gt;" style="text;strokeColor=none;align=center;fillColor=none;html=1;verticalAlign=middle;whiteSpace=wrap;rounded=0;" vertex="1" parent="1">
          <mxGeometry x="535" y="810" width="80" height="30" as="geometry" />
        </mxCell>
        <mxCell id="3mZjC6TeXiICDlZPDG1V-60" value="&lt;span style=&quot;white-space: nowrap;&quot;&gt;邢益文&lt;/span&gt;&lt;span style=&quot;white-space: pre-wrap; text-align: start; font-family: &amp;quot;Helvetica Neue&amp;quot;, Helvetica, &amp;quot;PingFang SC&amp;quot;, Tahoma, Arial, sans-serif; background-color: rgb(255, 255, 255);&quot;&gt;陳&lt;/span&gt;&lt;span style=&quot;white-space: nowrap;&quot;&gt;氏&lt;/span&gt;" style="text;strokeColor=none;align=center;fillColor=none;html=1;verticalAlign=middle;whiteSpace=wrap;rounded=0;" vertex="1" parent="1">
          <mxGeometry x="695" y="810" width="80" height="30" as="geometry" />
        </mxCell>
        <mxCell id="3mZjC6TeXiICDlZPDG1V-61" value="&lt;span style=&quot;white-space: nowrap;&quot;&gt;邢益东&lt;/span&gt;" style="text;strokeColor=none;align=center;fillColor=none;html=1;verticalAlign=middle;whiteSpace=wrap;rounded=0;" vertex="1" parent="1">
          <mxGeometry x="625" y="810" width="80" height="30" as="geometry" />
        </mxCell>
        <mxCell id="3mZjC6TeXiICDlZPDG1V-62" value="&lt;span style=&quot;white-space: nowrap;&quot;&gt;邢桔&lt;/span&gt;" style="text;strokeColor=none;align=center;fillColor=none;html=1;verticalAlign=middle;whiteSpace=wrap;rounded=0;" vertex="1" parent="1">
          <mxGeometry x="69" y="760" width="80" height="30" as="geometry" />
        </mxCell>
        <mxCell id="3mZjC6TeXiICDlZPDG1V-63" value="&lt;span style=&quot;white-space: nowrap;&quot;&gt;邢善堂&lt;/span&gt;" style="text;strokeColor=none;align=center;fillColor=none;html=1;verticalAlign=middle;whiteSpace=wrap;rounded=0;" vertex="1" parent="1">
          <mxGeometry x="200" y="810" width="80" height="30" as="geometry" />
        </mxCell>
        <mxCell id="3mZjC6TeXiICDlZPDG1V-64" value="&lt;span style=&quot;white-space: nowrap;&quot;&gt;邢善皇郑氏&lt;/span&gt;" style="text;strokeColor=none;align=center;fillColor=none;html=1;verticalAlign=middle;whiteSpace=wrap;rounded=0;" vertex="1" parent="1">
          <mxGeometry x="270" y="810" width="80" height="30" as="geometry" />
        </mxCell>
        <mxCell id="3mZjC6TeXiICDlZPDG1V-65" value="&lt;span style=&quot;white-space: nowrap;&quot;&gt;邢关寿&lt;/span&gt;" style="text;strokeColor=none;align=center;fillColor=none;html=1;verticalAlign=middle;whiteSpace=wrap;rounded=0;" vertex="1" parent="1">
          <mxGeometry x="329" y="810" width="80" height="30" as="geometry" />
        </mxCell>
        <mxCell id="3mZjC6TeXiICDlZPDG1V-66" value="&lt;span style=&quot;white-space: nowrap;&quot;&gt;邢胜敏&lt;/span&gt;" style="text;strokeColor=none;align=center;fillColor=none;html=1;verticalAlign=middle;whiteSpace=wrap;rounded=0;" vertex="1" parent="1">
          <mxGeometry x="383" y="810" width="80" height="30" as="geometry" />
        </mxCell>
        <mxCell id="3mZjC6TeXiICDlZPDG1V-67" value="&lt;span style=&quot;white-space: nowrap;&quot;&gt;邢能能&lt;/span&gt;" style="text;strokeColor=none;align=center;fillColor=none;html=1;verticalAlign=middle;whiteSpace=wrap;rounded=0;" vertex="1" parent="1">
          <mxGeometry x="429" y="810" width="80" height="30" as="geometry" />
        </mxCell>
        <mxCell id="3mZjC6TeXiICDlZPDG1V-93" value="&lt;span style=&quot;white-space: nowrap;&quot;&gt;邢&lt;/span&gt;&lt;div&gt;&lt;span style=&quot;text-wrap-mode: nowrap;&quot;&gt;增&lt;/span&gt;&lt;/div&gt;&lt;div&gt;&lt;span style=&quot;text-wrap-mode: nowrap;&quot;&gt;奕&lt;/span&gt;&lt;/div&gt;" style="text;strokeColor=none;align=center;fillColor=none;html=1;verticalAlign=middle;whiteSpace=wrap;rounded=0;strokeWidth=1;" vertex="1" parent="1">
          <mxGeometry x="292.5" y="730" width="20" height="50" as="geometry" />
        </mxCell>
        <mxCell id="3mZjC6TeXiICDlZPDG1V-111" value="&lt;span style=&quot;white-space: nowrap;&quot;&gt;邢&lt;/span&gt;&lt;div&gt;&lt;br&gt;&lt;/div&gt;" style="text;strokeColor=none;align=center;fillColor=none;html=1;verticalAlign=middle;whiteSpace=wrap;rounded=0;strokeWidth=1;" vertex="1" parent="1">
          <mxGeometry x="500.5" y="680" width="25" height="50" as="geometry" />
        </mxCell>
      </root>
    </mxGraphModel>
  </diagram>
</mxfile>
